<svg xmlns="http://www.w3.org/2000/svg" width="899.999" height="900.001" viewBox="0 0 899.999 900.001"><defs><style>.a{fill:#d0a94c;}</style></defs><g transform="translate(0 0)"><path class="a" d="M2038,1891H1138V991h900v900h0Zm-780-120h660V1557.42H1740.51V1753h-112.7V1299.61h112.7V1473.6H1918V1111H1545.305q.327.772.645,1.551a140.235,140.235,0,0,1,10.15,53.55q0,44.1-18.55,76.3t-60.55,49v1.4q20.3,5.6,33.6,17.15a95.117,95.117,0,0,1,21.7,27.3,127.1,127.1,0,0,1,12.25,34.65,300.335,300.335,0,0,1,5.25,37.8q.7,11.9,1.4,28t2.451,32.9a220.66,220.66,0,0,0,5.6,31.85q3.85,15.05,11.55,25.55H1460.9q-9.1-23.8-11.2-56.7t-6.3-63q-5.6-39.2-23.8-57.4t-59.5-18.2H1258Zm112.6-516.7q37.8,0,56.7-16.8t18.9-54.6q0-36.4-18.9-52.85t-56.7-16.45H1258v140.7Z" transform="translate(-1138 -991)"/></g></svg>